<svg xmlns="http://www.w3.org/2000/svg" version="1.1" viewBox="1.7868965864181519 1.3348619937896729 444.8975830078125 441.51116943359375" width="448.00" height="444.00">
<g stroke-width="2.00" fill="none" stroke-linecap="butt">
<path stroke="#0099d6" d="&#10;  M 434.52 293.64&#10;  Q 423.07 285.95 411.45 280.76"/>
<path stroke="#0099d6" d="&#10;  M 354.77 348.70&#10;  Q 354.94 338.38 350.18 329.33&#10;  Q 344.29 318.10 342.09 315.16&#10;  Q 339.43 311.60 337.09 307.81&#10;  Q 335.91 305.90 333.12 302.38&#10;  Q 331.04 299.76 329.49 296.62"/>
</g>
<path fill="#00afea" d="&#10;  M 87.94 47.58&#10;  C 89.67 46.55 91.49 44.35 93.19 43.19&#10;  Q 107.62 33.34 112.10 31.08&#10;  Q 116.88 28.65 121.58 26.07&#10;  Q 127.84 22.62 131.15 21.29&#10;  Q 138.55 18.32 142.42 16.43&#10;  Q 147.95 13.73 153.90 12.30&#10;  Q 158.99 11.07 169.02 8.24&#10;  Q 177.85 5.75 184.16 4.98&#10;  Q 189.37 4.35 194.35 3.21&#10;  Q 197.25 2.54 204.65 2.04&#10;  Q 226.07 0.61 248.02 2.08&#10;  Q 252.96 2.42 259.91 3.85&#10;  Q 264.91 4.87 267.80 5.30&#10;  Q 272.12 5.95 275.66 6.94&#10;  Q 279.75 8.09 294.02 11.69&#10;  Q 296.12 12.22 300.62 13.89&#10;  Q 304.17 15.21 316.07 20.36&#10;  Q 321.90 22.89 325.69 25.19&#10;  Q 330.28 27.97 335.15 30.24&#10;  C 338.85 31.97 342.77 34.78 346.50 37.28&#10;  Q 347.62 38.04 351.10 40.06&#10;  Q 354.40 41.98 357.28 44.49&#10;  Q 360.05 46.89 361.16 47.54&#10;  C 363.12 48.68 364.65 49.59 366.52 51.30&#10;  Q 371.20 55.59 375.90 59.84&#10;  Q 388.05 70.83 400.33 85.62&#10;  Q 401.38 86.88 405.00 91.93&#10;  C 407.05 94.80 409.58 97.37 411.32 100.12&#10;  Q 414.23 104.74 418.32 111.74&#10;  Q 419.60 113.92 422.05 118.84&#10;  Q 423.88 122.53 425.89 125.87&#10;  Q 426.57 126.99 431.12 137.91&#10;  Q 431.15 138.00 433.29 143.01&#10;  Q 434.63 146.15 435.35 149.68&#10;  A 0.48 0.48 0.0 0 1 434.73 150.23&#10;  Q 421.64 145.99 419.33 145.27&#10;  Q 412.93 143.28 409.11 142.57&#10;  Q 406.53 142.09 402.27 140.63&#10;  Q 399.95 139.83 395.39 138.83&#10;  Q 359.83 131.08 322.56 128.18&#10;  Q 317.30 127.77 308.41 127.47&#10;  Q 300.89 127.22 298.96 127.09&#10;  Q 293.87 126.72 289.52 126.81&#10;  C 283.04 126.94 270.24 126.65 261.34 127.11&#10;  Q 254.43 127.47 247.50 127.44&#10;  Q 243.55 127.42 237.50 127.92&#10;  C 232.33 128.34 228.80 128.42 224.21 129.31&#10;  Q 220.03 130.12 215.11 130.34&#10;  Q 210.65 130.53 206.04 131.22&#10;  Q 194.41 132.95 183.91 134.18&#10;  Q 180.13 134.63 177.00 135.32&#10;  Q 174.99 135.76 170.11 136.52&#10;  C 165.77 137.21 159.68 138.76 154.39 139.68&#10;  Q 150.63 140.34 148.11 140.99&#10;  Q 139.85 143.13 138.12 143.70&#10;  Q 134.51 144.87 128.07 146.19&#10;  Q 121.97 147.45 113.97 150.25&#10;  Q 96.02 156.54 93.43 157.44&#10;  C 87.25 159.59 83.27 161.70 75.68 165.37&#10;  Q 71.78 167.25 68.35 168.51&#10;  C 61.77 170.93 56.48 174.46 50.65 177.77&#10;  Q 48.40 179.05 43.27 182.24&#10;  C 39.87 184.36 36.62 185.79 33.52 188.29&#10;  Q 28.51 192.32 22.20 196.43&#10;  Q 16.77 199.97 5.45 211.44&#10;  Q 4.83 212.06 2.61 213.56&#10;  Q 2.10 213.91 2.02 213.29&#10;  Q 1.50 209.32 2.14 204.40&#10;  Q 4.20 188.36 7.37 172.84&#10;  Q 8.50 167.28 10.21 162.01&#10;  C 11.64 157.63 12.62 152.75 14.36 147.64&#10;  Q 17.12 139.57 23.67 124.84&#10;  C 26.72 117.98 31.70 111.19 34.90 104.84&#10;  Q 36.71 101.25 39.20 98.63&#10;  Q 40.86 96.88 42.33 94.10&#10;  Q 43.31 92.22 45.50 89.64&#10;  Q 56.41 76.73 60.53 72.03&#10;  Q 62.80 69.43 65.34 67.09&#10;  Q 69.43 63.32 70.70 61.93&#10;  C 74.35 57.97 78.60 55.31 82.16 51.64&#10;  C 83.71 50.04 86.24 48.59 87.94 47.58&#10;  Z"/>
<path fill="#0082c2" d="&#10;  M 434.52 293.64&#10;  Q 423.07 285.95 411.45 280.76&#10;  Q 405.61 277.84 399.48 274.61&#10;  Q 394.30 271.88 390.15 270.69&#10;  Q 383.89 268.89 377.73 266.81&#10;  C 372.86 265.15 366.90 263.95 362.17 263.03&#10;  Q 358.74 262.36 355.83 262.09&#10;  Q 346.74 261.24 335.40 259.81&#10;  Q 332.35 259.43 328.09 259.37&#10;  C 325.12 259.32 321.51 258.79 318.30 258.77&#10;  Q 307.21 258.69 301.09 258.66&#10;  Q 293.91 258.61 283.93 259.47&#10;  Q 262.43 261.33 258.95 261.55&#10;  Q 252.79 261.95 247.55 262.81&#10;  Q 237.94 264.38 236.25 264.75&#10;  Q 224.33 267.36 223.15 267.54&#10;  Q 217.67 268.37 215.15 268.99&#10;  C 209.11 270.47 203.21 271.23 197.76 273.00&#10;  C 193.70 274.31 189.28 274.96 185.15 276.15&#10;  Q 175.97 278.78 172.64 279.77&#10;  Q 167.13 281.40 160.30 283.83&#10;  Q 150.59 287.29 148.59 287.94&#10;  Q 142.92 289.78 137.04 292.44&#10;  Q 130.75 295.29 123.01 298.46&#10;  Q 116.26 301.23 111.45 303.73&#10;  Q 106.09 306.51 103.82 307.44&#10;  C 98.25 309.74 92.84 313.53 87.39 316.28&#10;  Q 81.79 319.11 78.68 321.48&#10;  Q 75.56 323.86 70.23 326.84&#10;  Q 66.79 328.77 62.03 332.54&#10;  Q 52.55 340.04 43.89 346.15&#10;  Q 43.48 346.44 43.10 346.09&#10;  Q 38.71 342.04 37.63 339.95&#10;  Q 35.92 336.64 34.28 333.29&#10;  Q 33.80 332.31 29.75 326.16&#10;  Q 26.88 321.81 26.12 320.16&#10;  Q 23.18 313.82 18.54 304.26&#10;  Q 16.92 300.94 15.51 296.50&#10;  Q 12.16 285.95 9.79 276.83&#10;  C 8.45 271.71 6.97 267.24 10.01 263.50&#10;  Q 11.72 261.38 15.40 255.91&#10;  Q 18.09 251.90 20.25 249.68&#10;  C 22.83 247.05 24.26 244.14 27.23 241.76&#10;  C 30.68 239.01 34.64 234.34 38.44 231.22&#10;  C 41.10 229.04 43.08 226.84 45.76 225.23&#10;  Q 48.90 223.33 56.59 218.24&#10;  Q 60.40 215.73 66.11 212.59&#10;  Q 70.98 209.92 75.64 206.89&#10;  Q 78.69 204.91 88.66 200.31&#10;  Q 94.46 197.64 102.07 194.66&#10;  Q 102.84 194.36 120.98 187.20&#10;  Q 123.75 186.11 132.02 184.05&#10;  C 136.22 183.01 140.90 181.46 145.39 180.42&#10;  Q 148.20 179.77 150.74 179.04&#10;  Q 164.79 175.00 166.54 174.77&#10;  Q 172.84 173.97 179.04 172.70&#10;  Q 186.41 171.20 190.04 170.86&#10;  Q 195.79 170.30 201.13 169.55&#10;  Q 209.60 168.36 217.64 167.66&#10;  Q 232.06 166.41 234.25 166.29&#10;  Q 238.58 166.06 244.22 165.25&#10;  Q 249.28 164.52 254.19 164.49&#10;  Q 285.82 164.30 298.75 164.36&#10;  Q 309.47 164.41 318.71 165.46&#10;  Q 328.79 166.60 344.89 167.98&#10;  C 350.13 168.43 356.42 169.73 362.25 170.42&#10;  Q 370.51 171.39 374.03 172.29&#10;  C 379.25 173.65 383.98 174.14 389.56 175.85&#10;  Q 409.19 181.88 414.27 183.16&#10;  Q 420.87 184.82 426.87 187.74&#10;  Q 427.52 188.06 444.05 195.37&#10;  Q 446.42 196.42 446.52 199.86&#10;  Q 446.77 208.12 446.64 228.27&#10;  Q 446.56 240.02 445.43 247.22&#10;  Q 444.44 253.48 443.72 259.79&#10;  Q 443.11 265.17 441.18 272.14&#10;  Q 438.31 282.53 434.52 293.64&#10;  Z"/>
<path fill="#00afea" d="&#10;  M 434.52 293.64&#10;  Q 430.46 307.00 426.27 314.78&#10;  Q 421.66 323.35 417.30 332.05&#10;  Q 416.00 334.64 414.14 336.83&#10;  Q 411.63 339.79 411.05 340.81&#10;  C 409.93 342.81 408.87 344.62 407.38 346.49&#10;  Q 404.05 350.64 400.94 354.96&#10;  Q 397.06 360.36 394.35 363.11&#10;  Q 392.81 364.68 389.78 368.49&#10;  Q 387.53 371.33 384.82 373.58&#10;  Q 382.01 375.91 381.19 376.93&#10;  C 379.78 378.69 378.55 380.28 376.66 381.74&#10;  Q 374.33 383.53 372.22 385.58&#10;  Q 369.12 388.58 367.85 389.45&#10;  C 363.79 392.24 360.43 395.45 355.79 398.54&#10;  Q 352.53 400.71 348.10 404.63&#10;  C 345.88 406.59 343.26 407.88 340.23 409.38&#10;  C 338.04 410.47 336.25 412.17 334.51 413.26&#10;  Q 331.77 414.97 316.84 422.37&#10;  Q 311.79 424.88 306.45 426.64&#10;  Q 302.05 428.09 299.42 429.39&#10;  Q 295.54 431.29 292.44 432.25&#10;  Q 275.71 437.40 267.80 438.82&#10;  Q 262.87 439.70 243.87 442.12&#10;  Q 234.91 443.26 216.19 442.61&#10;  Q 209.17 442.37 199.81 441.05&#10;  Q 185.53 439.04 183.52 438.69&#10;  Q 172.35 436.74 157.84 431.67&#10;  Q 143.81 426.76 129.96 421.38&#10;  A 0.74 0.74 0.0 0 1 129.74 420.13&#10;  Q 131.42 418.67 133.19 417.69&#10;  Q 146.58 410.22 161.92 402.54&#10;  Q 168.43 399.27 173.73 397.42&#10;  Q 177.00 396.28 181.66 394.04&#10;  Q 184.58 392.63 189.70 390.98&#10;  Q 212.01 383.78 226.96 380.54&#10;  Q 229.05 380.09 229.50 379.98&#10;  Q 242.54 376.84 252.84 375.13&#10;  Q 264.21 373.25 281.79 372.57&#10;  Q 295.96 372.02 312.17 373.67&#10;  Q 316.93 374.15 324.49 376.11&#10;  Q 332.40 378.16 336.73 379.02&#10;  C 338.96 379.47 340.92 378.54 343.03 377.86&#10;  Q 347.12 376.54 350.83 374.32&#10;  C 355.30 371.64 358.01 364.84 358.20 359.71&#10;  Q 358.28 357.48 356.97 354.08&#10;  Q 355.81 351.08 354.77 348.70&#10;  Q 354.94 338.38 350.18 329.33&#10;  Q 344.29 318.10 342.09 315.16&#10;  Q 339.43 311.60 337.09 307.81&#10;  Q 335.91 305.90 333.12 302.38&#10;  Q 331.04 299.76 329.49 296.62&#10;  Q 339.13 297.89 348.28 298.81&#10;  C 352.09 299.19 354.83 300.01 358.19 300.85&#10;  Q 360.63 301.47 362.07 301.94&#10;  Q 375.16 306.26 388.95 309.64&#10;  Q 393.70 310.80 396.47 310.25&#10;  Q 401.03 309.33 405.47 307.82&#10;  Q 407.39 307.16 408.89 304.88&#10;  Q 415.73 294.45 411.45 280.76&#10;  Q 423.07 285.95 434.52 293.64&#10;  Z"/>
<path fill="#0082c2" d="&#10;  M 329.49 296.62&#10;  Q 331.04 299.76 333.12 302.38&#10;  Q 335.91 305.90 337.09 307.81&#10;  Q 339.43 311.60 342.09 315.16&#10;  Q 344.29 318.10 350.18 329.33&#10;  Q 354.94 338.38 354.77 348.70&#10;  Q 348.07 342.01 338.81 339.69&#10;  Q 320.47 335.10 304.53 334.47&#10;  Q 298.88 334.25 280.46 334.43&#10;  Q 274.11 334.49 268.64 335.35&#10;  Q 263.53 336.15 256.83 336.47&#10;  C 253.63 336.63 250.75 337.22 247.45 337.58&#10;  Q 246.00 337.74 243.73 338.25&#10;  Q 229.61 341.36 222.46 342.68&#10;  Q 216.50 343.78 213.16 344.77&#10;  C 209.28 345.91 205.61 346.57 200.91 348.15&#10;  Q 192.14 351.08 183.22 353.46&#10;  Q 178.86 354.62 165.00 360.60&#10;  Q 161.70 362.03 158.00 363.20&#10;  Q 152.61 364.91 150.96 365.71&#10;  Q 141.75 370.17 132.52 374.60&#10;  Q 130.13 375.74 124.64 378.68&#10;  Q 122.30 379.93 116.81 382.86&#10;  Q 106.13 388.57 95.88 395.63&#10;  C 94.74 396.42 92.57 396.97 91.08 396.17&#10;  Q 88.67 394.88 88.03 394.34&#10;  Q 84.08 391.06 73.21 382.22&#10;  Q 70.47 379.99 69.76 378.92&#10;  A 1.31 1.30 -41.8 0 1 69.85 377.38&#10;  C 71.69 375.14 74.21 372.61 76.72 370.77&#10;  C 79.88 368.43 81.68 366.05 85.05 364.10&#10;  Q 87.08 362.93 93.18 358.19&#10;  C 97.99 354.47 103.09 352.06 108.05 348.32&#10;  Q 111.23 345.92 115.34 343.85&#10;  Q 122.82 340.10 141.29 331.25&#10;  Q 147.73 328.16 153.09 326.54&#10;  Q 157.56 325.20 165.07 322.18&#10;  Q 171.68 319.53 178.47 317.58&#10;  C 184.51 315.84 190.07 313.70 196.52 311.92&#10;  Q 214.88 306.88 229.28 304.78&#10;  C 232.09 304.37 234.71 303.35 237.63 302.91&#10;  Q 251.06 300.87 253.39 300.44&#10;  Q 260.85 299.03 269.18 298.62&#10;  Q 276.17 298.28 287.97 297.01&#10;  Q 293.85 296.38 298.07 296.36&#10;  Q 301.32 296.35 308.19 295.95&#10;  Q 312.34 295.71 318.82 296.11&#10;  Q 324.32 296.44 329.49 296.62&#10;  Z"/>
</svg>